<svg xmlns="http://www.w3.org/2000/svg" version="1.1"
    xmlns:xlink="http://www.w3.org/1999/xlink"
    xmlns:svgjs="http://svgjs.dev/svgjs" width="128" height="128" viewBox="0 0 128 128">
    <g transform="matrix(0.30654761904761907,0,0,0.30654761904761907,44.38336585633574,12.33387096774193)">
        <svg viewBox="0 0 59 155" data-background-color="#ffffff" preserveAspectRatio="xMidYMid meet" height="336" width="128"
            xmlns="http://www.w3.org/2000/svg"
            xmlns:xlink="http://www.w3.org/1999/xlink">
            <g id="tight-bounds" transform="matrix(1,0,0,1,-0.0036289999999894462,0.25)">
                <svg viewBox="0 0 59.00725799999999 154.5" height="154.5" width="59.00725799999999">
                    <g>
                        <svg></svg>
                    </g>
                    <g>
                        <svg viewBox="0 0 59.00725799999999 154.5" height="154.5" width="59.00725799999999">
                            <g transform="matrix(1,0,0,1,0,60.8528980604915)">
                                <svg viewBox="0 0 59.00725799999999 32.794203879017005" height="32.794203879017005" width="59.00725799999999">
                                    <g>
                                        <svg viewBox="0 0 59.00725799999999 32.794203879017005" height="32.794203879017005" width="59.00725799999999">
                                            <g>
                                                <svg viewBox="0 0 59.00725799999999 32.794203879017005" height="32.794203879017005" width="59.00725799999999">
                                                    <g id="textblocktransform">
                                                        <svg viewBox="0 0 59.00725799999999 32.794203879017005" height="32.794203879017005" width="59.00725799999999" id="textblock">
                                                            <g>
                                                                <svg viewBox="0 0 59.00725799999999 32.794203879017005" height="32.794203879017005" width="59.00725799999999">
                                                                    <g transform="matrix(1,0,0,1,0,0)">
                                                                        <svg width="59.00725799999999" viewBox="4 -29.4 52.9 29.4" height="32.794203879017005" data-palette-color="#ff5b5b">
                                                                            <path d="M13.6 0L4 0 4-29.4 13.6-29.4 13.6 0ZM44.8 0L22.1 0 22.1-25.4 21.6-29.4 44.8-29.4Q50.85-29.4 53.87-27 56.9-24.6 56.9-19.5L56.9-19.5 56.9-9.95Q56.9-4.75 53.9-2.38 50.9 0 44.8 0L44.8 0ZM31.85-22.6L31.85-6.9 43.3-6.9Q47.15-6.9 47.2-10.45L47.2-10.45 47.2-19.1Q47.2-20.55 46.35-21.58 45.5-22.6 43.3-22.6L43.3-22.6 31.85-22.6Z" opacity="1" transform="matrix(1,0,0,1,0,0)" fill="#ff5b5b" class="wordmark-text-0" data-fill-palette-color="primary" id="text-0"></path>
                                                                        </svg>
                                                                    </g>
                                                                </svg>
                                                            </g>
                                                        </svg>
                                                    </g>
                                                </svg>
                                            </g>
                                            <g></g>
                                        </svg>
                                    </g>
                                </svg>
                            </g>
                            <path d="M0 54.853L0 1 59.007 1 59.007 54.853 56.05 54.853 56.05 3.957 2.957 3.957 2.957 54.853 0 54.853M0 99.647L0 153.5 59.007 153.5 59.007 99.647 56.05 99.647 56.05 150.543 2.957 150.543 2.957 99.647 0 99.647" fill="#ff5b5b" stroke="transparent" data-fill-palette-color="primary"></path>
                        </svg>
                    </g>
                    <defs></defs>
                </svg>
                <rect width="59.00725799999999" height="154.5" fill="none" stroke="none" visibility="hidden"></rect>
            </g>
        </svg>
    </g>
</svg>